<?xml version="1.0" standalone="no"?>
<!DOCTYPE svg PUBLIC "-//W3C//DTD SVG 20010904//EN"
 "http://www.w3.org/TR/2001/REC-SVG-20010904/DTD/svg10.dtd">
<svg version="1.0" xmlns="http://www.w3.org/2000/svg"
 width="739.000000pt" height="415.000000pt" viewBox="0 0 739.000000 415.000000"
 preserveAspectRatio="xMidYMid meet">

<g transform="translate(0.000000,415.000000) scale(0.100000,-0.100000)"
fill="#000000" stroke="none">
<path d="M3220 3454 c-25 -2 -115 -8 -200 -14 -381 -27 -643 -86 -855 -192
-106 -54 -154 -87 -243 -172 -135 -128 -227 -294 -298 -540 -45 -155 -300
-1094 -331 -1216 -44 -178 -41 -311 8 -374 94 -119 598 -196 1554 -236 1198
-50 2583 14 3045 142 191 52 239 112 227 283 -8 104 -16 138 -216 872 -183
673 -216 768 -314 916 -57 86 -168 199 -250 255 -119 82 -324 163 -512 201
-111 22 -288 46 -470 62 -114 10 -1049 21 -1145 13z m1249 -66 c6 -17 16 -70
22 -117 9 -69 8 -99 -3 -154 -11 -49 -12 -70 -4 -72 6 -1 76 -8 156 -15 576
-46 907 -216 1066 -545 44 -91 53 -123 189 -645 42 -162 85 -320 95 -350 59
-182 47 -280 -41 -326 -71 -36 -280 -74 -539 -98 -1176 -108 -3314 -72 -3859
63 -134 34 -174 65 -187 147 -7 50 2 92 89 414 31 113 85 318 121 455 48 182
78 275 109 340 153 316 442 473 989 540 160 19 413 35 556 35 141 0 168 12
238 104 59 78 73 86 97 53 l19 -24 49 52 c27 28 75 64 106 80 50 24 69 28 138
28 44 0 109 -6 144 -12 87 -17 216 -15 276 4 28 8 73 28 100 44 28 17 53 30
57 30 3 1 11 -13 17 -31z m-2184 -2402 c63 -27 75 -97 25 -148 -28 -27 -36
-30 -73 -25 -98 13 -121 134 -34 172 40 18 41 18 82 1z m2915 -38 c0 -83 7
-98 40 -91 25 5 28 3 23 -16 -4 -18 -13 -21 -53 -21 l-48 0 -9 83 c-5 45 -7
85 -5 90 2 4 14 7 28 7 22 0 24 -4 24 -52z m-105 -25 c3 -38 8 -78 11 -90 4
-20 0 -23 -26 -23 -30 0 -30 1 -30 53 0 28 -3 69 -6 90 -6 35 -5 37 19 37 24
0 26 -3 32 -67z m-2487 22 c30 -35 29 -86 -2 -122 -20 -23 -32 -28 -71 -28
-39 0 -51 5 -71 28 -41 48 -26 124 30 148 35 14 89 2 114 -26z m2382 16 c0
-14 -5 -18 -20 -14 -30 8 -25 -18 10 -49 33 -29 38 -58 14 -83 -23 -23 -88
-17 -92 9 -3 15 0 18 21 12 39 -9 43 12 8 44 -51 48 -38 100 26 100 26 0 33
-4 33 -19z m-2248 0 c15 -1 34 -8 42 -17 20 -19 21 -68 2 -83 -13 -11 -12 -17
6 -47 l21 -36 -29 4 c-22 2 -33 12 -46 38 l-17 35 -1 -32 c0 -29 -3 -33 -26
-33 l-25 0 5 88 c3 48 5 88 6 89 0 1 8 0 18 -2 9 -2 29 -4 44 -4z m2094 -74
c19 -43 34 -82 34 -87 0 -6 -11 -10 -25 -10 -14 0 -25 6 -25 13 0 6 -4 18 -9
26 -12 19 -51 4 -51 -20 0 -14 -7 -19 -29 -19 l-28 0 24 78 c14 42 26 83 29
90 2 7 13 12 25 10 15 -2 30 -24 55 -81z m-1932 56 c-1 -7 -2 -47 -2 -88 -2
-73 -3 -75 -27 -75 -25 0 -25 0 -24 91 l1 90 27 -3 c14 -2 26 -9 25 -15z
m1753 -9 c16 -25 16 -28 0 -56 -16 -28 -16 -31 3 -58 l20 -28 -23 -6 c-14 -4
-25 0 -32 10 -5 9 -16 23 -23 32 -11 15 -12 13 -10 -13 3 -26 -1 -30 -24 -33
l-27 -3 -3 90 -3 91 52 0 c46 0 55 -3 70 -26z m-1567 -6 c0 -20 -5 -23 -42
-23 -38 0 -43 -3 -46 -24 -6 -39 7 -71 28 -71 15 0 20 7 20 25 0 21 5 25 28
25 28 0 28 -1 23 -42 -6 -40 -8 -43 -40 -46 -74 -7 -113 25 -113 95 0 52 37
83 98 83 39 0 44 -3 44 -22z m110 10 c0 -5 0 -44 0 -88 0 -79 0 -80 -25 -80
-25 0 -25 1 -25 91 l0 90 25 -3 c14 -2 25 -6 25 -10z m1026 -19 c48 -45 20
-140 -45 -154 -36 -8 -95 16 -110 43 -25 47 -4 113 43 133 32 13 86 3 112 -22z
m254 11 c8 -14 8 -26 0 -40 -9 -16 -7 -24 5 -36 19 -20 19 -27 -3 -54 -13 -16
-32 -24 -70 -28 l-52 -5 0 92 0 91 55 0 c44 0 56 -4 65 -20z m-1150 -31 l25
-41 3 41 c3 37 6 41 30 41 l27 0 -2 -87 c-1 -78 -3 -88 -20 -91 -13 -2 -30 12
-52 43 -18 25 -34 45 -37 45 -3 0 -2 -21 2 -46 6 -45 6 -46 -21 -42 l-28 3 -1
88 c-1 87 -1 87 24 87 18 0 32 -11 50 -41z m255 -36 c16 -43 30 -84 33 -90 3
-8 -5 -13 -22 -13 -19 0 -27 6 -32 25 -8 34 -41 33 -54 -1 -7 -19 -16 -24 -33
-22 -25 4 -26 -1 10 100 23 64 32 78 49 78 17 0 26 -14 49 -77z m127 7 l-4
-70 31 0 c33 0 34 -1 25 -24 -4 -12 -20 -16 -55 -16 l-49 0 0 90 0 90 28 0 27
0 -3 -70z m271 58 c52 -27 63 -88 24 -134 -18 -21 -35 -28 -75 -32 l-52 -5 0
92 0 91 41 0 c22 0 50 -5 62 -12z"/>
<path d="M4337 3322 c-87 -44 -179 -51 -364 -28 -143 17 -202 12 -271 -23 -42
-21 -116 -97 -134 -136 -14 -32 -20 -31 -41 5 -10 17 -21 30 -25 30 -4 0 -17
-15 -29 -34 l-22 -34 42 -6 c24 -4 57 -15 75 -26 l32 -20 46 35 c65 50 138 69
210 56 31 -6 69 -17 84 -25 18 -8 33 -10 41 -5 8 5 64 7 124 3 105 -6 112 -5
158 20 56 30 60 22 12 -27 -43 -44 -65 -51 -154 -44 -82 6 -100 -2 -70 -29 26
-22 59 -90 58 -119 0 -12 -6 -4 -13 18 -61 169 -252 230 -397 126 -38 -27 -87
-112 -95 -166 -15 -98 38 -201 128 -253 135 -77 317 -6 363 140 7 25 14 37 14
28 1 -24 16 -22 76 6 152 71 236 214 236 400 0 50 -3 102 -8 116 l-8 25 -68
-33z m-367 -82 c0 -5 -13 -10 -28 -10 -16 0 -51 -7 -78 -15 -64 -19 -114 -20
-114 0 0 7 8 19 18 24 22 14 202 14 202 1z m-104 -172 c10 -17 -33 -48 -67
-48 -37 0 -50 27 -24 46 23 17 81 18 91 2z m-62 -239 c-3 -5 -10 -7 -15 -3 -5
3 -7 10 -3 15 3 5 10 7 15 3 5 -3 7 -10 3 -15z m110 0 c-3 -5 -10 -7 -15 -3
-5 3 -7 10 -3 15 3 5 10 7 15 3 5 -3 7 -10 3 -15z m-19 -43 l43 -44 -23 -22
c-13 -12 -29 -19 -35 -15 -6 4 -20 -1 -31 -11 -10 -9 -22 -14 -26 -10 -4 4 -1
12 7 17 12 8 10 9 -6 5 -25 -8 -60 26 -48 46 8 13 67 76 72 77 1 1 22 -19 47
-43z m-125 14 c0 -5 -4 -10 -10 -10 -5 0 -10 5 -10 10 0 6 5 10 10 10 6 0 10
-4 10 -10z m180 0 c0 -5 -4 -10 -10 -10 -5 0 -10 5 -10 10 0 6 5 10 10 10 6 0
10 -4 10 -10z m-180 -110 c0 -5 -4 -10 -10 -10 -5 0 -10 5 -10 10 0 6 5 10 10
10 6 0 10 -4 10 -10z m110 4 c0 -3 -7 -12 -15 -21 -20 -19 -32 -10 -14 11 14
15 29 21 29 10z m70 -4 c0 -5 -4 -10 -10 -10 -5 0 -10 5 -10 10 0 6 5 10 10
10 6 0 10 -4 10 -10z m-140 -40 c0 -5 -4 -10 -9 -10 -6 0 -13 5 -16 10 -3 6 1
10 9 10 9 0 16 -4 16 -10z m105 0 c-3 -5 -10 -10 -16 -10 -5 0 -9 5 -9 10 0 6
7 10 16 10 8 0 12 -4 9 -10z"/>
<path d="M3834 2789 c-3 -6 3 -20 14 -31 11 -11 25 -17 31 -14 15 10 14 22 -5
40 -18 19 -30 20 -40 5z m33 -14 c8 -9 13 -19 10 -22 -6 -5 -37 21 -37 31 0
10 11 6 27 -9z"/>
<path d="M3810 2761 c0 -10 19 -25 25 -20 1 2 -3 10 -11 17 -8 7 -14 8 -14 3z"/>
<path d="M3410 3039 c-54 -24 -77 -44 -98 -84 -91 -174 76 -362 258 -289 42
17 50 31 25 40 -8 4 -15 17 -15 30 0 21 -19 37 -20 17 0 -5 -11 -20 -25 -35
-24 -28 -61 -29 -51 -2 3 8 0 11 -8 8 -16 -6 -50 31 -41 46 4 6 14 9 22 6 8
-3 11 -1 8 5 -4 5 1 21 9 35 16 24 17 24 41 7 13 -10 23 -23 21 -28 -2 -6 4
-11 13 -11 14 0 16 9 13 61 -3 44 2 75 17 115 12 30 21 58 21 61 0 12 -80 39
-113 39 -17 0 -52 -10 -77 -21z m88 -26 c-4 -24 -88 -32 -88 -9 0 18 15 24 58
25 27 1 33 -3 30 -16z m52 -163 c0 -5 -4 -10 -10 -10 -5 0 -10 5 -10 10 0 6 5
10 10 10 6 0 10 -4 10 -10z m-100 -10 c0 -5 -4 -10 -10 -10 -5 0 -10 5 -10 10
0 6 5 10 10 10 6 0 10 -4 10 -10z m-30 -40 c0 -5 -2 -10 -4 -10 -3 0 -8 5 -11
10 -3 6 -1 10 4 10 6 0 11 -4 11 -10z m150 -110 c0 -5 -4 -10 -10 -10 -5 0
-10 5 -10 10 0 6 5 10 10 10 6 0 10 -4 10 -10z m-100 -10 c0 -5 -4 -10 -10
-10 -5 0 -10 5 -10 10 0 6 5 10 10 10 6 0 10 -4 10 -10z"/>
<path d="M3484 2788 c10 -6 22 -6 26 -2 5 5 -3 10 -18 11 -22 1 -24 0 -8 -9z"/>
<path d="M2190 2741 c-199 -63 -371 -235 -437 -435 -34 -105 -38 -251 -9 -336
25 -71 102 -150 165 -169 150 -44 283 -11 404 99 30 28 58 47 60 43 9 -14 -68
-236 -107 -310 -72 -137 -149 -201 -254 -210 -128 -12 -188 72 -132 182 27 54
25 81 -9 116 -34 34 -64 37 -108 9 -59 -35 -87 -132 -63 -218 15 -58 77 -124
143 -153 42 -19 69 -23 142 -23 145 1 254 55 348 170 58 70 135 224 176 349
23 74 101 372 101 390 0 3 -31 5 -69 5 l-69 0 -6 -34 c-11 -58 -65 -152 -112
-196 -71 -65 -143 -94 -239 -94 -87 0 -119 11 -169 61 -96 94 -94 291 4 444
42 64 125 141 191 175 46 25 66 29 136 29 91 0 118 -13 161 -75 26 -39 30
-116 7 -159 -45 -88 -178 -122 -200 -52 -8 26 -27 27 -49 2 -20 -22 -13 -41
29 -81 37 -35 129 -35 198 -1 77 38 153 113 173 173 42 126 -36 272 -164 308
-57 15 -180 11 -242 -9z m285 -37 c22 -11 53 -37 69 -58 26 -31 31 -47 34
-104 4 -66 -9 -122 -27 -122 -5 0 -2 19 6 43 42 121 -37 235 -182 258 l-50 8
56 -3 c31 -1 73 -11 94 -22z m-595 -356 c0 -2 -7 -25 -15 -53 -18 -59 -21
-165 -6 -221 14 -50 71 -119 122 -145 22 -11 66 -24 97 -28 l57 -9 -50 -1
c-98 -2 -202 72 -240 173 -14 37 -17 64 -12 134 5 88 21 152 38 152 5 0 9 -1
9 -2z m377 -38 c14 -11 34 -20 44 -20 11 0 19 -5 19 -11 0 -7 -10 -9 -26 -5
-32 8 -74 35 -74 47 0 14 9 11 37 -11z m312 -89 c12 -8 6 -40 -33 -193 -26
-100 -52 -187 -57 -193 -16 -16 -11 11 30 164 54 202 56 211 37 211 -8 0 -18
5 -21 10 -8 12 25 13 44 1z m-709 -526 c11 -21 10 -35 -9 -100 -19 -64 -21
-80 -11 -111 13 -39 52 -68 114 -85 21 -6 35 -13 32 -16 -12 -13 -100 22 -132
52 -30 28 -34 38 -34 81 1 27 7 67 15 89 19 52 19 74 -2 97 -14 15 -14 18 -1
18 8 0 21 -11 28 -25z"/>
<path d="M3457 2749 c7 -7 15 -10 18 -7 3 3 -2 9 -12 12 -14 6 -15 5 -6 -5z"/>
<path d="M3507 2739 c7 -7 15 -10 18 -7 3 3 -2 9 -12 12 -14 6 -15 5 -6 -5z"/>
<path d="M3604 2629 c-21 -10 -51 -20 -66 -24 -37 -7 -37 -40 1 -92 62 -85
157 -113 250 -72 77 33 152 142 87 125 -38 -10 -119 12 -178 48 l-55 32 -39
-17z m36 -19 c0 -5 -2 -10 -4 -10 -3 0 -8 5 -11 10 -3 6 -1 10 4 10 6 0 11 -4
11 -10z m68 -17 c11 -10 30 -25 41 -33 31 -21 26 -30 -16 -25 -25 3 -33 2 -24
-4 8 -5 20 -7 28 -4 20 8 16 -9 -11 -40 l-25 -29 -31 23 c-17 13 -28 29 -26
36 3 7 -1 10 -10 6 -7 -3 -14 -2 -14 2 0 5 61 85 65 85 1 0 11 -8 23 -17z
m-88 -17 c0 -11 -19 -15 -25 -6 -3 5 1 10 9 10 9 0 16 -2 16 -4z m5 -96 c3 -5
1 -10 -4 -10 -6 0 -11 5 -11 10 0 6 2 10 4 10 3 0 8 -4 11 -10z m135 -20 c0
-5 -4 -10 -10 -10 -5 0 -10 5 -10 10 0 6 5 10 10 10 6 0 10 -4 10 -10z m-100
-10 c0 -5 -4 -10 -10 -10 -5 0 -10 5 -10 10 0 6 5 10 10 10 6 0 10 -4 10 -10z"/>
<path d="M3680 2556 c7 -7 13 -7 20 0 6 6 3 10 -10 10 -13 0 -16 -4 -10 -10z"/>
<path d="M3681 2506 c-9 -10 -8 -15 2 -19 8 -3 13 3 13 14 0 23 0 23 -15 5z"/>
<path d="M5449 2415 c-28 -15 -82 -89 -72 -99 4 -3 27 -6 52 -6 62 0 111 30
111 68 0 50 -38 66 -91 37z m75 -20 c8 -21 -3 -44 -28 -57 -21 -11 -21 -11 -3
10 12 13 16 28 12 41 -7 24 10 29 19 6z"/>
<path d="M2656 2234 c-9 -25 -7 -34 9 -34 33 0 33 -34 -1 -170 -37 -152 -41
-196 -18 -228 12 -17 25 -22 60 -22 55 0 91 18 132 64 17 20 34 36 37 36 3 0
5 -14 5 -30 0 -40 39 -80 77 -80 53 1 116 43 161 108 27 37 37 35 46 -11 20
-105 171 -130 245 -40 l29 35 16 -35 c10 -19 28 -39 42 -46 105 -48 215 54
283 262 l23 67 39 0 c39 0 51 -14 29 -36 -16 -16 -60 -155 -60 -188 0 -39 32
-93 64 -107 54 -25 131 13 176 86 12 19 25 35 29 35 4 0 13 -17 19 -38 16 -53
52 -83 105 -89 59 -7 112 12 138 48 25 35 35 37 43 4 3 -13 20 -31 36 -40 59
-30 124 -13 174 46 32 37 43 32 27 -12 -6 -18 -11 -36 -11 -41 0 -5 28 -8 62
-6 l61 3 36 143 c34 137 38 145 78 183 78 72 96 49 58 -74 -48 -160 -44 -233
16 -258 50 -20 104 3 170 72 l57 60 6 -35 c4 -19 20 -48 35 -65 26 -28 35 -31
89 -31 69 0 114 25 142 78 l17 32 7 -32 c10 -52 42 -78 96 -78 49 0 80 17 127
70 36 40 88 149 76 161 -17 17 -37 0 -62 -52 -14 -30 -36 -58 -55 -70 -38 -23
-40 -23 -61 -2 -22 22 -15 76 30 233 19 65 35 122 35 125 0 3 -31 5 -70 5 -56
0 -70 -3 -70 -15 0 -19 -17 -19 -50 0 -39 22 -120 19 -170 -8 -49 -26 -104
-112 -116 -182 -11 -68 -82 -155 -126 -155 -24 0 -23 15 12 122 16 51 32 112
36 135 6 38 3 45 -24 73 -40 40 -93 41 -148 4 -21 -15 -40 -30 -42 -35 -2 -5
-8 -9 -14 -9 -7 0 -8 14 -5 36 l6 37 -101 -6 c-95 -6 -117 -13 -118 -39 0 -5
11 -8 25 -8 36 0 41 -22 21 -106 -35 -148 -152 -268 -183 -187 -12 30 30 214
74 330 4 10 -11 13 -67 13 -63 0 -73 -2 -77 -19 -6 -25 -29 -34 -53 -21 -10 6
-35 10 -55 10 -22 0 -34 4 -30 10 9 15 56 12 88 -4 15 -8 27 -11 27 -6 0 4
-20 16 -44 25 -114 44 -232 -46 -260 -196 -7 -41 -55 -112 -86 -129 -37 -20
-60 -4 -60 41 0 55 53 187 95 236 19 23 35 44 35 47 0 3 -74 6 -165 6 -163 0
-165 0 -169 -22 -2 -13 -12 -63 -22 -111 -19 -99 -62 -200 -93 -216 -35 -19
-60 -13 -67 16 -10 38 9 142 45 246 l29 87 -68 0 c-53 0 -71 -4 -78 -16 -8
-14 -12 -13 -43 5 -70 43 -189 14 -237 -58 -12 -19 -31 -64 -42 -100 -33 -105
-95 -183 -135 -167 -12 4 -14 15 -9 48 6 38 61 233 79 281 6 15 0 17 -67 17
l-74 0 -29 -122 c-24 -101 -35 -129 -65 -167 -48 -60 -66 -75 -86 -67 -20 8
-18 25 28 181 19 66 38 132 42 148 l6 27 -99 0 c-81 0 -100 -3 -105 -16z m149
-18 c19 -13 18 -17 -13 -132 -43 -159 -46 -178 -33 -203 8 -14 8 -21 1 -21 -6
0 -15 12 -21 27 -8 21 -3 52 22 147 47 180 47 176 10 176 -17 0 -31 5 -31 10
0 15 43 12 65 -4z m255 -1 c10 -13 6 -42 -25 -161 -32 -123 -37 -149 -26 -166
15 -23 6 -37 -12 -19 -18 18 -11 85 23 201 37 129 37 140 6 140 -14 0 -28 5
-31 10 -10 16 51 12 65 -5z m399 -9 c9 -10 11 -16 4 -16 -7 0 -15 5 -18 10 -3
6 -26 10 -51 10 -31 0 -43 4 -38 11 9 16 83 5 103 -15z m127 14 c9 0 14 -11
14 -30 0 -16 -5 -30 -10 -30 -6 0 -8 11 -4 25 5 22 3 25 -20 25 -14 0 -26 5
-26 11 0 6 7 8 16 5 9 -3 22 -6 30 -6z m945 -13 c9 -12 -1 -47 -12 -47 -5 0
-7 11 -3 25 5 22 3 25 -20 25 -14 0 -26 5 -26 10 0 12 52 1 61 -13z m270 13
c14 -8 19 -21 19 -51 0 -26 -4 -38 -11 -34 -5 4 -9 17 -8 28 2 38 -1 47 -16
47 -8 0 -15 5 -15 10 0 13 6 13 31 0z m628 -1 c17 -6 31 -15 31 -20 0 -6 -8
-5 -19 1 -11 5 -36 10 -56 10 -22 0 -34 4 -30 10 8 13 34 13 74 -1z m171 -25
c0 -12 -4 -26 -10 -29 -6 -4 -10 5 -10 19 0 21 -5 26 -26 26 -14 0 -23 4 -20
8 3 5 19 7 36 4 23 -3 30 -9 30 -28z m-1583 10 c3 -8 -2 -23 -11 -32 -16 -16
-17 -15 -11 10 7 26 5 27 -42 31 l-48 3 53 2 c40 2 54 -2 59 -14z m1017 -16
c22 -31 20 -52 -14 -163 -32 -104 -38 -161 -17 -168 6 -2 9 -7 6 -11 -3 -3
-14 -4 -23 0 -24 9 -20 58 14 169 37 119 38 157 8 178 -19 13 -20 16 -6 16 9
1 24 -9 32 -21z m-1594 -33 c40 -48 12 -191 -50 -257 -54 -56 -95 -50 -110 17
-22 98 52 255 120 255 15 0 33 -7 40 -15z m934 -7 c63 -90 -76 -355 -143 -274
-47 56 -26 182 45 265 32 38 75 42 98 9z m1073 -15 c40 -96 -53 -289 -130
-269 -13 3 -29 17 -35 31 -40 87 42 275 119 275 25 0 33 -6 46 -37z m-1498
-98 c-23 -67 -25 -128 -3 -150 21 -20 13 -29 -10 -12 -29 21 -31 92 -6 160 27
73 45 75 19 2z m-405 -56 l-18 -92 30 -23 c16 -13 24 -24 18 -24 -7 0 -22 9
-35 19 -19 15 -23 27 -21 65 2 50 30 161 39 152 3 -2 -3 -46 -13 -97z m930 0
l-19 -91 30 -25 c18 -15 23 -23 12 -19 -10 3 -22 6 -26 6 -31 0 -31 104 0 197
20 62 22 26 3 -68z m1069 15 c-17 -83 -13 -134 12 -134 8 0 15 -4 15 -9 0 -18
-42 2 -53 26 -11 24 2 122 24 179 18 48 19 20 2 -62z m-2268 59 c-4 -10 -12
-45 -18 -79 -9 -50 -8 -65 6 -92 16 -34 5 -46 -13 -13 -21 41 -5 201 22 201 6
0 7 -7 3 -17z m935 15 c0 -2 -7 -25 -15 -52 -19 -62 -19 -99 0 -136 10 -19 11
-30 5 -30 -24 0 -40 65 -30 125 12 73 19 95 31 95 5 0 9 -1 9 -2z m1051 -55
c-16 -55 -13 -115 5 -141 8 -12 10 -22 5 -22 -6 0 -18 11 -27 25 -18 28 -15
116 7 171 15 39 23 15 10 -33z m-501 -45 c-18 -90 -30 -128 -39 -128 -7 0 8
77 35 180 12 46 16 1 4 -52z"/>
<path d="M4345 1581 c-53 -24 -91 -70 -100 -121 -21 -123 51 -210 173 -210 72
0 102 13 102 45 l0 26 -26 -20 c-29 -23 -92 -28 -126 -10 -44 24 -63 143 -34
214 27 64 99 83 148 39 16 -15 18 -15 24 0 10 26 -2 43 -36 50 -52 10 -82 7
-125 -13z"/>
<path d="M5159 1590 c-79 -23 -119 -80 -119 -168 0 -111 62 -172 175 -172 69
0 95 13 95 46 l0 25 -26 -20 c-18 -14 -41 -21 -70 -21 -58 0 -85 27 -98 103
-24 131 65 231 148 166 30 -24 31 -23 40 8 6 19 2 23 -31 32 -43 12 -77 13
-114 1z"/>
<path d="M2622 1428 c-34 -90 -62 -166 -62 -170 0 -5 8 -8 18 -8 12 0 21 15
32 53 l15 52 57 3 56 3 20 -53 c18 -49 22 -53 56 -56 20 -2 36 1 36 6 0 6 -22
65 -49 133 -26 68 -54 141 -62 162 -9 27 -19 37 -34 37 -18 0 -30 -24 -83
-162z m98 -25 c0 -8 -14 -13 -36 -13 -33 0 -36 2 -30 25 3 13 11 37 17 52 l11
28 19 -40 c10 -22 19 -46 19 -52z"/>
<path d="M2920 1420 c0 -163 1 -170 20 -170 19 0 20 7 20 116 l0 116 33 -29
c17 -15 68 -67 112 -115 44 -48 88 -87 97 -88 15 0 17 17 20 170 3 156 2 170
-14 170 -16 0 -18 -12 -18 -117 l-1 -118 -115 118 c-70 71 -122 117 -134 117
-19 0 -20 -7 -20 -170z"/>
<path d="M3290 1572 c0 -14 7 -17 45 -14 l46 4 -2 -153 -1 -154 36 -3 36 -3 0
156 0 157 42 -4 c34 -2 43 1 46 15 3 15 -8 17 -122 17 -114 0 -126 -2 -126
-18z"/>
<path d="M3646 1438 c-75 -198 -72 -188 -49 -188 15 0 24 13 37 55 l17 56 56
-3 56 -3 17 -50 c16 -48 18 -50 58 -53 41 -3 51 4 33 23 -8 10 -102 245 -116
293 -4 14 -14 22 -29 22 -19 0 -29 -19 -80 -152z m74 27 c5 -14 13 -37 16 -50
6 -23 3 -25 -30 -25 -20 0 -36 4 -36 10 0 13 31 90 36 90 3 0 9 -11 14 -25z"/>
<path d="M3945 1420 l0 -170 38 0 39 0 -4 70 c-2 39 -1 70 2 70 4 0 24 -31 46
-70 39 -70 39 -70 83 -70 43 0 43 0 29 23 -9 12 -30 46 -48 75 -31 51 -32 54
-14 67 11 8 23 15 27 15 15 0 37 70 31 95 -12 49 -48 65 -143 65 l-86 0 0
-170z m139 127 c28 -20 18 -87 -15 -106 -43 -24 -59 -10 -59 52 0 30 3 57 7
60 11 11 48 8 67 -6z"/>
<path d="M4570 1573 c0 -14 9 -18 42 -18 l43 0 -1 -152 -1 -153 38 0 38 0 -5
156 -5 156 45 -4 c39 -3 46 0 46 14 0 16 -12 18 -120 18 -108 0 -120 -2 -120
-17z"/>
<path d="M4880 1419 l0 -170 36 3 35 3 2 168 2 167 -37 0 -38 0 0 -171z"/>
<path d="M5442 1458 c-28 -73 -58 -150 -67 -171 -16 -38 -16 -38 6 -35 17 2
27 15 39 53 l17 50 56 3 56 3 17 -56 c17 -54 18 -55 56 -55 21 0 38 4 38 8 0
4 -17 50 -38 102 -22 52 -50 125 -63 163 -19 54 -28 67 -45 67 -18 0 -29 -20
-72 -132z m87 -55 c1 -8 -12 -13 -34 -13 -40 0 -43 9 -19 66 l17 39 18 -40 c9
-22 18 -46 18 -52z"/>
<path d="M2212 948 c-17 -17 -15 -64 4 -83 42 -41 94 18 60 69 -18 28 -44 34
-64 14z"/>
<path d="M2499 916 c-16 -35 -4 -74 26 -82 49 -12 72 37 39 84 -20 29 -52 28
-65 -2z"/>
<path d="M2722 904 c-1 -17 2 -24 11 -21 15 5 16 39 2 44 -6 2 -12 -8 -13 -23z"/>
<path d="M4776 885 c-3 -9 0 -15 9 -15 9 0 12 6 9 15 -4 8 -7 15 -9 15 -2 0
-5 -7 -9 -15z"/>
<path d="M4590 906 c0 -14 5 -26 10 -26 6 0 10 9 10 19 0 11 -4 23 -10 26 -6
4 -10 -5 -10 -19z"/>
<path d="M4122 898 c-17 -17 -15 -49 4 -76 28 -40 74 -22 74 28 0 45 -50 76
-78 48z"/>
<path d="M4410 900 c0 -13 5 -20 13 -17 6 2 12 10 12 17 0 7 -6 15 -12 18 -8
2 -13 -5 -13 -18z"/>
<path d="M4410 830 c0 -15 5 -20 18 -18 9 2 17 10 17 18 0 8 -8 16 -17 18 -13
2 -18 -3 -18 -18z"/>
<path d="M3530 856 c0 -9 5 -16 10 -16 6 0 10 4 10 9 0 6 -4 13 -10 16 -5 3
-10 -1 -10 -9z"/>
<path d="M3930 855 c0 -42 4 -55 15 -55 39 0 43 80 5 100 -19 10 -20 7 -20
-45z"/>
</g>
</svg>
